<svg width="150" height="150" viewBox="0 0 150 150" fill="none" xmlns="http://www.w3.org/2000/svg">
<rect width="150" height="150" fill="#1E1E1E"/>
<g clip-path="url(#clip0_0_1)">
<path d="M130 0H20C8.95431 0 0 8.9543 0 20V130C0 141.046 8.9543 150 20 150H130C141.046 150 150 141.046 150 130V20C150 8.95431 141.046 0 130 0Z" fill="black" stroke="#2A57CC" stroke-width="20"/>
<path d="M30.8182 35.3636C29.697 35.3636 28.7348 34.9621 27.9318 34.1591C27.1288 33.3561 26.7273 32.3939 26.7273 31.2727C26.7273 30.1515 27.1288 29.1894 27.9318 28.3864C28.7348 27.5833 29.697 27.1818 30.8182 27.1818C31.9394 27.1818 32.9015 27.5833 33.7045 28.3864C34.5076 29.1894 34.9091 30.1515 34.9091 31.2727C34.9091 32.0152 34.7197 32.697 34.3409 33.3182C33.9773 33.9394 33.4848 34.4394 32.8636 34.8182C32.2576 35.1818 31.5758 35.3636 30.8182 35.3636ZM48.4432 35.3636C47.322 35.3636 46.3598 34.9621 45.5568 34.1591C44.7538 33.3561 44.3523 32.3939 44.3523 31.2727C44.3523 30.1515 44.7538 29.1894 45.5568 28.3864C46.3598 27.5833 47.322 27.1818 48.4432 27.1818C49.5644 27.1818 50.5265 27.5833 51.3295 28.3864C52.1326 29.1894 52.5341 30.1515 52.5341 31.2727C52.5341 32.0152 52.3447 32.697 51.9659 33.3182C51.6023 33.9394 51.1098 34.4394 50.4886 34.8182C49.8826 35.1818 49.2008 35.3636 48.4432 35.3636ZM66.0682 35.3636C64.947 35.3636 63.9848 34.9621 63.1818 34.1591C62.3788 33.3561 61.9773 32.3939 61.9773 31.2727C61.9773 30.1515 62.3788 29.1894 63.1818 28.3864C63.9848 27.5833 64.947 27.1818 66.0682 27.1818C67.1894 27.1818 68.1515 27.5833 68.9545 28.3864C69.7576 29.1894 70.1591 30.1515 70.1591 31.2727C70.1591 32.0152 69.9697 32.697 69.5909 33.3182C69.2273 33.9394 68.7348 34.4394 68.1136 34.8182C67.5076 35.1818 66.8258 35.3636 66.0682 35.3636Z" fill="#2A57CC"/>
<path d="M30.8182 65.3636C29.697 65.3636 28.7348 64.9621 27.9318 64.1591C27.1288 63.3561 26.7273 62.3939 26.7273 61.2727C26.7273 60.1515 27.1288 59.1894 27.9318 58.3864C28.7348 57.5833 29.697 57.1818 30.8182 57.1818C31.9394 57.1818 32.9015 57.5833 33.7045 58.3864C34.5076 59.1894 34.9091 60.1515 34.9091 61.2727C34.9091 62.0152 34.7197 62.697 34.3409 63.3182C33.9773 63.9394 33.4848 64.4394 32.8636 64.8182C32.2576 65.1818 31.5758 65.3636 30.8182 65.3636ZM48.4432 65.3636C47.322 65.3636 46.3598 64.9621 45.5568 64.1591C44.7538 63.3561 44.3523 62.3939 44.3523 61.2727C44.3523 60.1515 44.7538 59.1894 45.5568 58.3864C46.3598 57.5833 47.322 57.1818 48.4432 57.1818C49.5644 57.1818 50.5265 57.5833 51.3295 58.3864C52.1326 59.1894 52.5341 60.1515 52.5341 61.2727C52.5341 62.0152 52.3447 62.697 51.9659 63.3182C51.6023 63.9394 51.1098 64.4394 50.4886 64.8182C49.8826 65.1818 49.2008 65.3636 48.4432 65.3636ZM66.0682 65.3636C64.947 65.3636 63.9848 64.9621 63.1818 64.1591C62.3788 63.3561 61.9773 62.3939 61.9773 61.2727C61.9773 60.1515 62.3788 59.1894 63.1818 58.3864C63.9848 57.5833 64.947 57.1818 66.0682 57.1818C67.1894 57.1818 68.1515 57.5833 68.9545 58.3864C69.7576 59.1894 70.1591 60.1515 70.1591 61.2727C70.1591 62.0152 69.9697 62.697 69.5909 63.3182C69.2273 63.9394 68.7348 64.4394 68.1136 64.8182C67.5076 65.1818 66.8258 65.3636 66.0682 65.3636ZM83.6932 65.3636C82.572 65.3636 81.6098 64.9621 80.8068 64.1591C80.0038 63.3561 79.6023 62.3939 79.6023 61.2727C79.6023 60.1515 80.0038 59.1894 80.8068 58.3864C81.6098 57.5833 82.572 57.1818 83.6932 57.1818C84.8144 57.1818 85.7765 57.5833 86.5795 58.3864C87.3826 59.1894 87.7841 60.1515 87.7841 61.2727C87.7841 62.0152 87.5947 62.697 87.2159 63.3182C86.8523 63.9394 86.3598 64.4394 85.7386 64.8182C85.1326 65.1818 84.4508 65.3636 83.6932 65.3636ZM101.318 65.3636C100.197 65.3636 99.2348 64.9621 98.4318 64.1591C97.6288 63.3561 97.2273 62.3939 97.2273 61.2727C97.2273 60.1515 97.6288 59.1894 98.4318 58.3864C99.2348 57.5833 100.197 57.1818 101.318 57.1818C102.439 57.1818 103.402 57.5833 104.205 58.3864C105.008 59.1894 105.409 60.1515 105.409 61.2727C105.409 62.0152 105.22 62.697 104.841 63.3182C104.477 63.9394 103.985 64.4394 103.364 64.8182C102.758 65.1818 102.076 65.3636 101.318 65.3636ZM118.943 65.3636C117.822 65.3636 116.86 64.9621 116.057 64.1591C115.254 63.3561 114.852 62.3939 114.852 61.2727C114.852 60.1515 115.254 59.1894 116.057 58.3864C116.86 57.5833 117.822 57.1818 118.943 57.1818C120.064 57.1818 121.027 57.5833 121.83 58.3864C122.633 59.1894 123.034 60.1515 123.034 61.2727C123.034 62.0152 122.845 62.697 122.466 63.3182C122.102 63.9394 121.61 64.4394 120.989 64.8182C120.383 65.1818 119.701 65.3636 118.943 65.3636Z" fill="#2A57CC"/>
<path d="M30.8182 95.3636C29.697 95.3636 28.7348 94.9621 27.9318 94.1591C27.1288 93.3561 26.7273 92.3939 26.7273 91.2727C26.7273 90.1515 27.1288 89.1894 27.9318 88.3864C28.7348 87.5833 29.697 87.1818 30.8182 87.1818C31.9394 87.1818 32.9015 87.5833 33.7045 88.3864C34.5076 89.1894 34.9091 90.1515 34.9091 91.2727C34.9091 92.0152 34.7197 92.697 34.3409 93.3182C33.9773 93.9394 33.4848 94.4394 32.8636 94.8182C32.2576 95.1818 31.5758 95.3636 30.8182 95.3636ZM48.4432 95.3636C47.322 95.3636 46.3598 94.9621 45.5568 94.1591C44.7538 93.3561 44.3523 92.3939 44.3523 91.2727C44.3523 90.1515 44.7538 89.1894 45.5568 88.3864C46.3598 87.5833 47.322 87.1818 48.4432 87.1818C49.5644 87.1818 50.5265 87.5833 51.3295 88.3864C52.1326 89.1894 52.5341 90.1515 52.5341 91.2727C52.5341 92.0152 52.3447 92.697 51.9659 93.3182C51.6023 93.9394 51.1098 94.4394 50.4886 94.8182C49.8826 95.1818 49.2008 95.3636 48.4432 95.3636Z" fill="#2A57CC"/>
<path d="M30.8182 125.364C29.697 125.364 28.7348 124.962 27.9318 124.159C27.1288 123.356 26.7273 122.394 26.7273 121.273C26.7273 120.152 27.1288 119.189 27.9318 118.386C28.7348 117.583 29.697 117.182 30.8182 117.182C31.9394 117.182 32.9015 117.583 33.7045 118.386C34.5076 119.189 34.9091 120.152 34.9091 121.273C34.9091 122.015 34.7197 122.697 34.3409 123.318C33.9773 123.939 33.4848 124.439 32.8636 124.818C32.2576 125.182 31.5758 125.364 30.8182 125.364ZM48.4432 125.364C47.322 125.364 46.3598 124.962 45.5568 124.159C44.7538 123.356 44.3523 122.394 44.3523 121.273C44.3523 120.152 44.7538 119.189 45.5568 118.386C46.3598 117.583 47.322 117.182 48.4432 117.182C49.5644 117.182 50.5265 117.583 51.3295 118.386C52.1326 119.189 52.5341 120.152 52.5341 121.273C52.5341 122.015 52.3447 122.697 51.9659 123.318C51.6023 123.939 51.1098 124.439 50.4886 124.818C49.8826 125.182 49.2008 125.364 48.4432 125.364ZM66.0682 125.364C64.947 125.364 63.9848 124.962 63.1818 124.159C62.3788 123.356 61.9773 122.394 61.9773 121.273C61.9773 120.152 62.3788 119.189 63.1818 118.386C63.9848 117.583 64.947 117.182 66.0682 117.182C67.1894 117.182 68.1515 117.583 68.9545 118.386C69.7576 119.189 70.1591 120.152 70.1591 121.273C70.1591 122.015 69.9697 122.697 69.5909 123.318C69.2273 123.939 68.7348 124.439 68.1136 124.818C67.5076 125.182 66.8258 125.364 66.0682 125.364ZM83.6932 125.364C82.572 125.364 81.6098 124.962 80.8068 124.159C80.0038 123.356 79.6023 122.394 79.6023 121.273C79.6023 120.152 80.0038 119.189 80.8068 118.386C81.6098 117.583 82.572 117.182 83.6932 117.182C84.8144 117.182 85.7765 117.583 86.5795 118.386C87.3826 119.189 87.7841 120.152 87.7841 121.273C87.7841 122.015 87.5947 122.697 87.2159 123.318C86.8523 123.939 86.3598 124.439 85.7386 124.818C85.1326 125.182 84.4508 125.364 83.6932 125.364Z" fill="#2A57CC"/>
</g>
<defs>
<clipPath id="clip0_0_1">
<rect width="150" height="150" fill="white"/>
</clipPath>
</defs>
</svg>
